<svg width="512" height="512" viewBox="0 0 512 512" fill="none" xmlns="http://www.w3.org/2000/svg" role="img" aria-labelledby="favicon-title">
  <title id="favicon-title">MacBook Pro Store Experience</title>
  <rect width="512" height="512" fill="#050608"/>
  <rect x="16" y="16" width="480" height="480" rx="104" fill="url(#bg)"/>
  <circle cx="166" cy="124" r="128" fill="#E8F1FF" fill-opacity=".08"/>
  <circle cx="360" cy="372" r="146" fill="#72A7FF" fill-opacity=".1"/>
  <rect x="126" y="134" width="260" height="178" rx="24" fill="#11151B" stroke="url(#screen-stroke)" stroke-width="14"/>
  <rect x="151" y="160" width="210" height="124" rx="12" fill="url(#screen)"/>
  <path d="M77 341C82.6 327.6 95.8 319 110.3 319H401.7C416.2 319 429.4 327.6 435 341L452 382H60L77 341Z" fill="url(#deck)"/>
  <path d="M60 382H452L431.2 405.6C424.4 413.3 414.7 417.8 404.4 417.8H107.6C97.3 417.8 87.6 413.3 80.8 405.6L60 382Z" fill="url(#front)"/>
  <rect x="211" y="343" width="90" height="12" rx="6" fill="white" fill-opacity=".46"/>
  <path d="M154 382H358" stroke="white" stroke-opacity=".28" stroke-width="6" stroke-linecap="round"/>
  <defs>
    <linearGradient id="bg" x1="34" y1="23" x2="459" y2="484" gradientUnits="userSpaceOnUse">
      <stop stop-color="#1C2028"/>
      <stop offset=".42" stop-color="#0D1117"/>
      <stop offset="1" stop-color="#000000"/>
    </linearGradient>
    <linearGradient id="screen-stroke" x1="126" y1="134" x2="386" y2="312" gradientUnits="userSpaceOnUse">
      <stop stop-color="#F7FBFF"/>
      <stop offset=".5" stop-color="#ABB7C4"/>
      <stop offset="1" stop-color="#55606B"/>
    </linearGradient>
    <linearGradient id="screen" x1="160" y1="160" x2="350" y2="286" gradientUnits="userSpaceOnUse">
      <stop stop-color="#F7FAFF"/>
      <stop offset=".32" stop-color="#AFC5E1"/>
      <stop offset=".68" stop-color="#516B89"/>
      <stop offset="1" stop-color="#151B24"/>
    </linearGradient>
    <linearGradient id="deck" x1="76" y1="319" x2="436" y2="382" gradientUnits="userSpaceOnUse">
      <stop stop-color="#F6F8FB"/>
      <stop offset=".52" stop-color="#B8C1CC"/>
      <stop offset="1" stop-color="#6A7280"/>
    </linearGradient>
    <linearGradient id="front" x1="60" y1="382" x2="452" y2="418" gradientUnits="userSpaceOnUse">
      <stop stop-color="#AEB7C3"/>
      <stop offset=".5" stop-color="#F4F6F8"/>
      <stop offset="1" stop-color="#7A838F"/>
    </linearGradient>
  </defs>
</svg>
